<svg width="46" height="45" viewBox="0 0 46 45" fill="none" xmlns="http://www.w3.org/2000/svg">
<g clip-path="url(#clip0_2001_105)">
<path d="M45.0614 11.6089C45.0614 11.4529 45.0577 11.2981 45.0553 11.1421C45.0589 10.8642 45.065 10.5876 45.065 10.3097C45.0638 9.58567 45.0602 8.86168 45.0577 8.1377C44.965 8.12795 44.8906 8.17305 44.8126 8.21205C44.6418 8.21327 44.5089 8.34978 44.3356 8.34612C44.2551 8.39244 44.1612 8.40584 44.0819 8.4546C44.0453 8.45947 44.0075 8.46313 43.9709 8.468C43.8904 8.51432 43.7953 8.52651 43.716 8.57648C43.6794 8.58135 43.6428 8.58501 43.6062 8.58989C43.5245 8.63254 43.4367 8.66302 43.3513 8.69836C43.3147 8.70324 43.2794 8.70689 43.244 8.71177C43.172 8.78368 43.0659 8.77027 42.9854 8.82146L42.9891 8.83121L42.8793 8.83487C42.8037 8.8629 42.7305 8.89947 42.6597 8.93847C42.5963 8.95919 42.5329 8.98113 42.4707 9.00185C42.156 9.10667 41.8413 9.21271 41.5266 9.31753C41.4485 9.37238 41.3534 9.38213 41.2729 9.42844C41.2351 9.4321 41.1985 9.43575 41.1607 9.44063C41.0838 9.49304 40.9875 9.50401 40.9082 9.55032C40.8167 9.54789 40.7411 9.5942 40.6581 9.6198C40.4606 9.68196 40.2739 9.77581 40.0666 9.8075C39.9873 9.85625 39.8922 9.86722 39.8141 9.91719C39.7775 9.92207 39.7397 9.92572 39.7031 9.9306C39.6214 9.97448 39.5275 9.99032 39.4482 10.0391C39.4128 10.044 39.3762 10.0488 39.3408 10.0525C39.2689 10.1244 39.1628 10.111 39.0835 10.161C39.031 10.1768 38.9786 10.1926 38.9261 10.2085C38.859 10.2426 38.7822 10.2438 38.7176 10.2828C38.4748 10.3682 38.2321 10.4523 37.9894 10.5364C37.9125 10.5912 37.8162 10.601 37.7357 10.6473C37.7235 10.6473 37.7125 10.6509 37.7027 10.6582C37.6771 10.6582 37.6503 10.6595 37.6247 10.6595C37.5466 10.7107 37.4515 10.7241 37.371 10.7679C37.3332 10.7728 37.2966 10.7777 37.2588 10.7813C37.1807 10.8325 37.0868 10.8447 37.0051 10.8898C36.8331 10.8874 36.7038 11.0312 36.5318 11.0275C36.4513 11.0726 36.3574 11.0873 36.2769 11.1348C36.2403 11.1397 36.2037 11.1446 36.1659 11.1494C36.0854 11.1945 35.9915 11.2092 35.9122 11.2579C35.8744 11.2616 35.8378 11.2664 35.8 11.2713C35.7195 11.3164 35.6255 11.331 35.5463 11.3786C35.5084 11.3834 35.4718 11.3883 35.434 11.392C35.3535 11.4395 35.2596 11.4517 35.1803 11.5017C35.1279 11.5175 35.0754 11.5334 35.023 11.5492C34.9571 11.5846 34.8791 11.5846 34.8156 11.6236C34.7803 11.6284 34.7449 11.6321 34.7095 11.637C34.629 11.6626 34.5583 11.7235 34.4668 11.7101C34.3204 11.7186 34.2045 11.7991 34.085 11.871L34.0826 11.8722C33.9826 11.9283 33.935 12.0221 33.9521 12.1269C34.0204 12.5267 33.9325 12.9228 33.9374 13.3214C33.9569 15.4227 33.9143 17.5264 33.9679 19.6276C33.9801 20.1152 33.9557 20.6002 33.9496 21.0866C33.9313 22.5735 33.9447 24.0617 33.9472 25.5487C33.9472 25.6096 33.9411 25.6718 33.9569 25.7303C33.9911 25.8534 34.0435 25.8741 34.146 25.7998C34.2985 25.8327 34.4302 25.7925 34.5412 25.6755C34.5449 25.6669 34.5461 25.6596 34.5461 25.6511L34.5607 25.6523L34.5729 25.6426C34.6119 25.6401 34.651 25.6377 34.6888 25.6352C34.6973 25.6243 34.7046 25.6121 34.712 25.6011H34.7132C34.7278 25.5999 34.7424 25.5987 34.7571 25.595C34.823 25.5853 34.8839 25.5585 34.9425 25.528C34.9791 25.5231 35.0157 25.5182 35.0523 25.5134C35.1291 25.4573 35.2303 25.4597 35.3072 25.4061C35.3206 25.4024 35.3328 25.3976 35.3438 25.3927C35.4206 25.333 35.5206 25.3305 35.6036 25.2842C35.7865 25.294 35.928 25.1489 36.1098 25.1489C36.1988 25.0904 36.311 25.0892 36.4037 25.038C36.5245 24.9954 36.6452 24.9515 36.7672 24.9088C36.8562 24.8515 36.9709 24.8552 37.0587 24.7942C37.0831 24.7918 37.1075 24.7894 37.1319 24.7857C37.1941 24.7394 37.2649 24.7199 37.3417 24.7272C37.3966 24.715 37.4515 24.7004 37.5003 24.6711L37.4978 24.6638C37.5771 24.609 37.6661 24.5895 37.7601 24.5858C37.7979 24.581 37.8345 24.57 37.8662 24.548L37.8625 24.5407C37.943 24.4883 38.0321 24.4676 38.126 24.4639C38.1638 24.4591 38.2004 24.4493 38.2321 24.4249C38.3541 24.3835 38.4821 24.3628 38.5968 24.3006L38.5919 24.2945C38.6675 24.2372 38.7676 24.2397 38.8456 24.1885C38.8822 24.1824 38.9188 24.1775 38.9554 24.1726C39.031 24.1166 39.1323 24.119 39.2103 24.0654C39.2347 24.0617 39.2603 24.0593 39.2847 24.0556C39.375 24.0032 39.4811 23.9886 39.575 23.9423C39.5872 23.9386 39.5994 23.9338 39.6116 23.9289C39.6543 23.896 39.7019 23.874 39.758 23.8752C39.8226 23.8704 39.8824 23.8484 39.9397 23.8192C39.9641 23.8155 39.9873 23.8119 40.0117 23.8094C40.0898 23.7558 40.1898 23.7558 40.2666 23.7022C40.2788 23.6985 40.291 23.6936 40.3032 23.69C40.3801 23.6449 40.4667 23.6242 40.552 23.6034C40.5618 23.5986 40.5691 23.5913 40.5752 23.5839C40.5776 23.5839 40.5801 23.5864 40.5825 23.5876C40.613 23.5986 40.6423 23.5925 40.6703 23.5766C40.6947 23.5766 40.7191 23.5779 40.7435 23.5779C40.7606 23.5876 40.7765 23.5876 40.7923 23.5791C40.7935 23.6364 40.7972 23.6949 40.7972 23.7534C40.7972 25.9241 40.796 28.0948 40.796 30.2656C40.7972 32.2462 40.7996 34.228 40.8009 36.2086C40.8009 36.2098 40.8021 36.2098 40.8021 36.211C40.8009 37.3604 40.8009 38.511 40.7996 39.6603C40.8094 39.6664 40.8179 39.6725 40.8253 39.6798C40.8106 39.6774 40.7948 39.6774 40.774 39.6762C40.7691 39.8785 40.7618 40.0796 40.6703 40.2673C40.5142 40.505 40.2837 40.5818 40.0117 40.583C38.5041 40.5879 36.9977 40.5964 35.4901 40.6049C35.4109 40.6049 35.3279 40.5891 35.2511 40.6256C34.3046 40.6232 33.3568 40.6183 32.4103 40.6183C32.0664 40.6171 31.7212 40.6244 31.3772 40.6281C31.3077 40.5891 31.2308 40.6025 31.1577 40.6025C30.427 40.6013 29.6964 40.5964 28.9658 40.6013C28.6901 40.6037 28.4133 40.5769 28.1376 40.6269C27.6863 40.6269 27.2338 40.6256 26.7813 40.6256C26.719 40.5915 26.6495 40.6025 26.5824 40.6025C25.3298 40.6025 24.0783 40.6025 22.8257 40.6037C22.7647 40.6037 22.7025 40.5964 22.6464 40.6281C22.5793 40.6244 22.5122 40.6159 22.4451 40.6159H10.5832C10.5234 40.6159 10.4624 40.6244 10.4015 40.6281C10.3624 40.6196 10.3234 40.6049 10.2844 40.6049C8.73774 40.5964 7.19112 40.5842 5.6445 40.5903C5.40909 40.5903 5.16026 40.5891 4.93827 40.7122C4.81264 40.7573 4.66383 40.7475 4.57235 40.8706C4.1918 41.0242 3.92468 41.3021 3.71732 41.6446C3.67585 41.7128 3.64658 41.7872 3.60023 41.8518L3.59535 41.8494C3.57949 41.8713 3.57461 41.8944 3.58681 41.9164C3.50509 41.9493 3.52582 42.0456 3.48069 42.1004C3.47703 42.1382 3.47337 42.1748 3.46849 42.2113C3.41605 42.3076 3.41117 42.4137 3.40873 42.5197C3.41239 42.527 3.41605 42.5343 3.42215 42.5404C3.3331 42.5465 3.40141 42.6367 3.36116 42.6684C3.33188 42.9341 3.41239 43.1828 3.48191 43.4326C3.53558 43.5094 3.54168 43.6069 3.59413 43.6837C3.64414 43.8226 3.70512 43.9555 3.8271 44.0493C3.8332 44.131 3.88442 44.1785 3.95273 44.2127C3.95517 44.2736 3.99176 44.3102 4.04299 44.3345C4.20765 44.5344 4.41623 44.6734 4.6553 44.7672C4.67603 44.7721 4.69677 44.777 4.71872 44.7806C4.7419 44.8087 4.76995 44.827 4.80898 44.8196C4.87851 44.8903 4.96999 44.8903 5.05903 44.905C5.09806 44.9037 5.13709 44.9025 5.17612 44.9001C5.29444 44.9659 5.42251 44.9415 5.54814 44.9403C5.75184 44.9403 5.95675 44.9403 6.16045 44.9415C6.6337 44.9415 7.10696 44.9415 7.58021 44.9403C7.58265 44.9379 7.58509 44.9342 7.58875 44.9318C7.58875 44.9366 7.58875 44.9427 7.58997 44.9488C7.67291 44.9976 7.76318 44.9781 7.84856 44.9781C18.5798 44.9793 29.311 44.9793 40.041 44.9781C40.1215 44.9781 40.2044 44.9915 40.2825 44.9586C40.2898 44.9488 40.2959 44.9403 40.2983 44.933C40.3008 44.9354 40.3032 44.9379 40.3056 44.9403C40.4313 44.9415 40.5606 44.9635 40.6801 44.9013C40.7167 44.9037 40.7533 44.905 40.7911 44.9074C40.8338 44.9269 40.8753 44.9208 40.9167 44.9025L40.9131 44.8928C40.9924 44.8526 41.079 44.8391 41.168 44.8367C41.2473 44.8452 41.3241 44.805 41.4034 44.8196C41.4449 44.8257 41.4839 44.8184 41.5217 44.805C41.6144 44.7514 41.7157 44.7234 41.8218 44.7063C41.9498 44.6904 42.0596 44.6246 42.1718 44.5661C42.2414 44.5198 42.3072 44.4686 42.3926 44.4564C42.4878 44.4357 42.5658 44.387 42.6366 44.3224C42.6939 44.2626 42.7646 44.2249 42.8439 44.2005C42.9781 44.1152 43.1147 44.0335 43.1915 43.886C43.2098 43.8592 43.2281 43.8336 43.2464 43.808L43.2598 43.8117L43.272 43.8044C43.2964 43.8019 43.3208 43.7983 43.3464 43.7958C43.3843 43.7519 43.4318 43.7166 43.4745 43.6776C43.4879 43.6508 43.5014 43.624 43.516 43.5984C43.6172 43.5338 43.6916 43.446 43.7599 43.3497C43.7855 43.3363 43.8124 43.3241 43.8392 43.312C43.8417 43.2924 43.8441 43.2729 43.8465 43.2534C43.8526 43.2486 43.8575 43.2437 43.86 43.2388H43.8612C43.9026 43.2388 43.9331 43.2157 43.9575 43.1828C43.96 43.1584 43.9624 43.1352 43.9636 43.1108C44.0002 43.0523 44.0795 43.028 44.0917 42.9512C44.4381 42.5599 44.6455 42.0931 44.8223 41.6092C44.8565 41.552 44.8796 41.491 44.8894 41.4252C44.9016 41.363 44.8943 41.296 44.9333 41.2399L44.9431 41.2436C45.0041 41.0839 45.0236 40.9145 45.0577 40.7487C45.0626 40.4648 45.0736 40.1808 45.0736 39.8968C45.0699 30.4667 45.0663 21.0378 45.0614 11.6089ZM37.7503 10.7789C37.7479 10.7777 37.7467 10.7765 37.7442 10.7753H37.7515C37.7515 10.7765 37.7515 10.7777 37.7503 10.7789ZM38.7944 11.7369L38.7956 11.7357C38.7968 11.7357 38.7968 11.7369 38.7968 11.7369C38.7956 11.7369 38.7956 11.7369 38.7944 11.7369ZM24.4101 40.6403C24.4089 40.6403 24.4089 40.6391 24.4077 40.6391C24.4089 40.6391 24.4089 40.6391 24.4101 40.6403ZM41.1595 28.5141C41.1497 28.5336 41.118 28.5446 41.0936 28.5543C41.0875 28.5568 41.0631 28.5409 41.0643 28.5385C41.0729 28.5129 41.0851 28.4897 41.0851 28.4885C41.1399 28.4922 41.1704 28.491 41.1595 28.5141Z" fill="url(#paint0_linear_2001_105)"/>
<path d="M15.0596 22.8368C15.0779 22.8246 15.0889 22.8088 15.0986 22.7917C15.0974 22.81 15.0925 22.8283 15.0901 22.8465C15.0889 22.8551 15.0877 22.8624 15.0877 22.8709C15.1218 22.9538 15.1718 23.0074 15.2706 22.9721C15.2767 22.9684 15.2828 22.9635 15.2889 22.9611C15.3023 22.9635 15.3158 22.9672 15.3292 22.9696C15.4365 23.0294 15.5621 23.0281 15.6719 23.0781L15.667 23.0903C15.9232 23.0854 16.1781 23.0806 16.433 23.0769C16.4721 23.0416 16.5623 23.1001 16.5721 23.0074C16.5733 23.0074 16.5733 23.0074 16.5745 23.0074C16.6831 23.016 16.7892 23.0099 16.8917 22.9696L16.888 22.9587C16.9282 22.9575 16.9685 22.955 17.0075 22.9538C17.027 22.9453 17.0466 22.9367 17.0539 22.9209C17.0588 22.9209 17.0649 22.9209 17.0697 22.9197C17.1173 22.916 17.1624 22.8953 17.2112 22.9002C17.2698 22.8916 17.3247 22.8697 17.3795 22.8465C17.3917 22.8429 17.4039 22.838 17.4161 22.8331C17.4588 22.7917 17.5162 22.8039 17.5649 22.7893C17.6247 22.7661 17.6881 22.7551 17.7442 22.721L17.7418 22.7161C17.7894 22.6759 17.8577 22.6783 17.904 22.6357C17.9321 22.6223 17.9589 22.6089 17.9858 22.5955C18.0492 22.5467 18.126 22.5199 18.1931 22.4772C18.2041 22.4772 18.2151 22.4748 18.226 22.4699C18.276 22.4407 18.3139 22.3956 18.3602 22.3627C18.6371 22.1859 18.9054 21.9958 19.1274 21.7496C19.2189 21.7447 19.2396 21.6362 19.3214 21.6167C19.3592 21.5716 19.4067 21.5387 19.447 21.4973C19.4787 21.4473 19.5287 21.4181 19.569 21.3754C19.6007 21.3254 19.6519 21.2962 19.6922 21.2535C19.7214 21.2036 19.7751 21.1743 19.8141 21.1316C19.8434 21.0817 19.8959 21.0524 19.9349 21.0098C19.9666 20.9598 20.019 20.9305 20.0569 20.8879C20.0874 20.8379 20.141 20.8087 20.1788 20.766C20.2105 20.716 20.263 20.6868 20.3008 20.6441C20.3313 20.5941 20.385 20.5649 20.4228 20.521C20.4569 20.4723 20.4996 20.4357 20.5423 20.3967V20.3991C20.5789 20.3528 20.6228 20.315 20.6631 20.2736L20.6655 20.2772C20.6862 20.2443 20.7033 20.2078 20.7289 20.1797C20.9534 19.9299 21.179 19.6812 21.4047 19.4326C21.4498 19.396 21.4827 19.3473 21.5242 19.3071L21.5254 19.3083C21.562 19.2644 21.6047 19.2242 21.6462 19.1852C21.7267 19.1047 21.8035 19.0218 21.8877 18.9463C22.0828 18.7695 22.2475 18.5563 22.4927 18.438C22.5317 18.3174 22.6354 18.3442 22.7244 18.3405C22.7354 18.3625 22.7464 18.3844 22.7561 18.4063C22.8232 18.4076 22.8732 18.4722 22.9452 18.4551C23.0586 18.5745 23.2099 18.6282 23.3526 18.6964L23.3477 18.7025C23.3782 18.733 23.4123 18.7598 23.4575 18.7671C23.455 18.783 23.4599 18.7976 23.4806 18.8098C23.5807 18.8171 23.6148 18.939 23.7161 18.9451C23.7246 18.9816 23.7465 18.995 23.7819 18.9865C23.8624 19.0584 23.9393 19.1364 24.0442 19.1766C24.0527 19.184 24.0625 19.1888 24.0747 19.19C24.121 19.2254 24.1515 19.2802 24.2076 19.3034L24.204 19.3095C24.243 19.34 24.2832 19.3668 24.3284 19.3875C24.4211 19.4228 24.4503 19.5472 24.5626 19.5557C24.6089 19.591 24.6394 19.6447 24.6955 19.669L24.6918 19.6751C24.7394 19.708 24.7833 19.7458 24.8236 19.7885C24.8565 19.8092 24.8919 19.8275 24.9248 19.8507C25.1736 20.0323 25.3895 20.2565 25.6615 20.4089C25.7054 20.4454 25.7372 20.4978 25.792 20.5222C25.953 20.6465 26.1128 20.7709 26.2726 20.8952C26.3153 20.9342 26.3482 20.9842 26.4019 21.011C26.5263 21.0914 26.6105 21.2255 26.7593 21.273C26.7666 21.3267 26.7898 21.3657 26.8508 21.3681C26.902 21.4144 26.9544 21.4595 27.0057 21.5046C27.0435 21.5485 27.102 21.5692 27.1362 21.618L27.1325 21.6216C27.1667 21.6423 27.1984 21.6691 27.2362 21.6838C27.2325 21.7057 27.2374 21.7252 27.2618 21.7386C27.4021 21.7922 27.4704 21.947 27.6192 21.9897L27.6143 21.9934C27.657 22.0311 27.6899 22.0811 27.7424 22.1091C27.7839 22.1494 27.8241 22.1896 27.8644 22.2298C27.918 22.2578 27.9522 22.3078 27.9949 22.348C28.1108 22.4321 28.2278 22.5175 28.3437 22.6016C28.3876 22.6393 28.4218 22.6905 28.4742 22.7186C28.5145 22.7588 28.556 22.799 28.5962 22.8392C28.6499 22.8673 28.684 22.916 28.7255 22.9575C28.8633 23.0135 28.9329 23.1622 29.0743 23.211C29.1195 23.2488 29.1536 23.2987 29.2061 23.328C29.2463 23.3694 29.2866 23.4096 29.328 23.4499C29.3817 23.4767 29.4159 23.5242 29.4561 23.5669C29.6147 23.6912 29.7732 23.8167 29.9306 23.941C29.9733 23.9825 30.0074 24.03 30.0599 24.0581C30.1001 24.0995 30.1416 24.1397 30.1819 24.1799C30.2355 24.208 30.2697 24.2567 30.3112 24.2982C30.3929 24.3628 30.477 24.4249 30.5575 24.492C30.9186 24.7955 31.2784 25.1002 31.6382 25.4036C31.6797 25.4451 31.7163 25.4914 31.7651 25.5231C31.8883 25.7352 32.0017 25.6084 32.1359 25.528C32.4298 25.3512 32.7238 25.1769 32.9897 24.9624C33.0275 24.9429 33.0665 24.9246 33.1043 24.9064C33.1287 24.8893 33.1385 24.8637 33.1446 24.8381C33.1824 24.8491 33.2092 24.8174 33.2397 24.7979C33.2605 24.7942 33.2812 24.7894 33.3019 24.7857C33.2958 24.0556 33.2836 23.3255 33.2836 22.5955C33.2836 22.437 33.2836 22.2798 33.2849 22.1213V22.1201C33.2958 22.064 33.2849 21.9982 33.2849 21.9385V21.7874C33.2873 20.6002 33.2861 19.4143 33.2861 18.2272C33.2861 18.1943 33.291 18.1577 33.291 18.1223V18.1138C33.2934 16.6207 33.2983 15.1265 33.3019 13.6322C33.3019 13.4664 33.2934 13.3689 33.086 13.4493C32.9872 13.4884 32.8787 13.5042 32.786 13.5627C32.7836 13.5578 32.7811 13.5517 32.7775 13.5456C32.7287 13.5298 32.6799 13.5322 32.6311 13.5481C32.5701 13.5785 32.5091 13.6115 32.4396 13.6236C32.3932 13.637 32.3481 13.6566 32.3066 13.6834C32.2883 13.6785 32.27 13.6846 32.2517 13.6931C32.2127 13.6968 32.1737 13.7016 32.1347 13.7065C32.0541 13.7492 31.9688 13.7699 31.8773 13.7614C31.798 13.7699 31.7187 13.7809 31.6443 13.8162C31.565 13.8321 31.4845 13.8491 31.4053 13.865C31.2845 13.9015 31.1515 13.8759 31.0345 13.9369C30.6795 13.9783 30.3307 14.0563 29.9733 14.088C29.7684 14.1063 29.5525 14.1026 29.3549 14.1843C29.2244 14.188 29.0926 14.1916 28.9621 14.1953C28.5035 14.188 28.0473 14.2477 27.5863 14.2343C26.7227 14.2099 25.8579 14.2038 24.9943 14.1916C24.765 14.1892 24.5382 14.2075 24.3247 14.3025C24.2027 14.3074 24.0783 14.2977 23.9612 14.3501C23.8819 14.3818 23.7917 14.3818 23.7148 14.4244C23.6356 14.4403 23.5551 14.4561 23.4758 14.4732C23.3953 14.5036 23.305 14.5012 23.2294 14.5487C23.2172 14.5524 23.205 14.5573 23.1916 14.5621C23.1184 14.6219 23.0147 14.6133 22.9415 14.6718C22.6915 14.7072 22.4719 14.8278 22.2451 14.9229C21.8267 15.096 21.412 15.2764 21.0351 15.5336C20.9765 15.5299 20.9412 15.5665 20.907 15.6067C20.8936 15.6177 20.8814 15.6286 20.868 15.6396C20.7594 15.6786 20.6826 15.7651 20.5911 15.8309C20.363 15.9967 20.202 16.2405 19.9568 16.3867C19.8971 16.4123 19.8568 16.4562 19.8275 16.5123L19.8251 16.5147C19.7178 16.583 19.6226 16.6683 19.5348 16.7585C19.1396 17.1631 18.7591 17.5824 18.3492 17.9736C18.2907 18.0297 18.2382 18.0919 18.2004 18.1638C18.1712 18.2211 18.1297 18.265 18.076 18.2979C17.9284 18.3941 17.8369 18.5416 17.7284 18.6733C17.7003 18.7159 17.6698 18.7574 17.6272 18.7866C17.615 18.7976 17.6028 18.8098 17.5918 18.8232C17.5576 18.8744 17.5052 18.9061 17.4625 18.9487C17.2185 19.2156 16.9563 19.4643 16.7355 19.7531C16.7111 19.8092 16.6806 19.8592 16.6294 19.8957C16.5818 19.9348 16.5391 19.9774 16.5013 20.0262C16.4696 20.0798 16.4196 20.1164 16.3708 20.1529C16.2354 20.2931 16.1208 20.4528 15.983 20.5905C15.9354 20.638 15.889 20.688 15.9098 20.7648C15.8622 20.7989 15.85 20.8659 15.789 20.8854C15.6658 21.0488 15.5438 21.2109 15.4207 21.3742C15.378 21.4132 15.3548 21.468 15.3084 21.5046C15.2401 21.646 15.1011 21.7423 15.056 21.8983C15.0194 21.93 14.9828 21.9617 14.9462 21.9934C14.9389 21.9995 14.9315 22.0055 14.9242 22.0129C14.9169 22.0385 14.9193 22.0628 14.9413 22.0787C14.9376 22.086 14.9364 22.0921 14.9364 22.1006C14.9547 22.1091 14.9596 22.1262 14.9633 22.1445C14.9657 22.1616 14.9681 22.1786 14.9791 22.1908C14.9669 22.1847 14.9584 22.1762 14.9523 22.1664C14.9413 22.1494 14.9376 22.1274 14.9364 22.1055V22.1006C14.934 22.0982 14.9328 22.0982 14.9303 22.097C14.8388 22.1006 14.8486 22.1847 14.8181 22.2371C14.7352 22.5028 14.784 22.7149 15.0596 22.8368ZM32.1408 15.2483C32.1383 15.2508 32.1359 15.252 32.1334 15.2544C32.1334 15.2508 32.1322 15.2471 32.1322 15.2435C32.1347 15.2459 32.1383 15.2471 32.1408 15.2483ZM27.3765 21.6216C27.3704 21.6362 27.3631 21.6484 27.3533 21.6582C27.3509 21.657 27.3496 21.6545 27.3472 21.6533C27.3411 21.6484 27.335 21.6423 27.3289 21.6375C27.3448 21.6326 27.3606 21.6265 27.3765 21.6216ZM27.0642 14.2635C27.0618 14.2672 27.0593 14.2708 27.0569 14.2757C27.0532 14.2721 27.0508 14.2672 27.0484 14.2623C27.0532 14.2623 27.0593 14.2623 27.0642 14.2635ZM15.0364 22.0263H15.0377C15.0377 22.0287 15.0364 22.0299 15.0352 22.0324C15.0364 22.0299 15.0364 22.0287 15.0364 22.0263Z" fill="url(#paint1_linear_2001_105)"/>
<path d="M31.6435 26.5778C31.5801 26.5754 31.5374 26.5474 31.5277 26.4803C31.5301 26.4706 31.5277 26.462 31.5191 26.4559C31.3813 26.4547 31.3093 26.3779 31.2813 26.2512C31.2032 26.2512 31.163 26.211 31.1569 26.1342L31.1544 26.1317C31.0581 26.1439 31.0215 26.0818 30.9971 26.005C30.919 25.9989 30.8471 25.983 30.8324 25.8867C30.8397 25.8807 30.8458 25.8758 30.8519 25.8733C30.8385 25.8563 30.8227 25.8416 30.8056 25.8282L30.8044 25.827C30.8019 25.8331 30.797 25.8392 30.7909 25.8465C30.7129 25.8417 30.6726 25.8026 30.6714 25.7234C30.6104 25.7246 30.569 25.699 30.5519 25.6393C30.497 25.6186 30.4323 25.604 30.4262 25.5272C30.3823 25.4845 30.3372 25.4419 30.2933 25.4004C30.225 25.3931 30.1872 25.3553 30.1823 25.2871C30.1762 25.2773 30.1664 25.2725 30.1555 25.2725C30.1238 25.2335 30.0908 25.1957 30.0591 25.1579C30.0067 25.1286 29.9725 25.0799 29.9298 25.0384C29.8127 24.9543 29.6968 24.8702 29.5798 24.7861C29.5163 24.7679 29.4761 24.7252 29.4517 24.6655C29.3687 24.5863 29.287 24.507 29.2053 24.4278C29.1541 24.3961 29.1187 24.3486 29.0748 24.3084C28.9589 24.2243 28.8418 24.1402 28.7247 24.0561C28.6637 24.0366 28.6223 23.9951 28.5966 23.9366L28.5991 23.9354C28.5418 23.9135 28.4796 23.8952 28.4722 23.8184L28.4747 23.816C28.4308 23.7782 28.3844 23.7428 28.3454 23.6989C28.2295 23.6136 28.1124 23.5295 27.9953 23.4454C27.9307 23.4284 27.8916 23.3857 27.866 23.326C27.8246 23.2858 27.7843 23.2455 27.7441 23.2053C27.6989 23.1688 27.6526 23.1334 27.6148 23.0883C27.4977 23.0042 27.3806 22.9201 27.2623 22.836C27.2001 22.8189 27.1598 22.7763 27.1342 22.7178L27.1366 22.7153C27.0793 22.6934 27.0171 22.6751 27.0098 22.5996L27.011 22.5971C26.9671 22.5593 26.9207 22.5228 26.8817 22.4801C26.7646 22.396 26.6475 22.3119 26.5292 22.2278C26.4707 22.2059 26.406 22.19 26.4011 22.1108C26.2413 21.9865 26.0816 21.8622 25.923 21.7391C25.8583 21.7232 25.8181 21.6793 25.7925 21.6208C25.751 21.5806 25.7108 21.5416 25.6693 21.5014C25.6156 21.4734 25.5827 21.4222 25.5376 21.3844C25.4388 21.3807 25.4119 21.254 25.3131 21.2515C25.2485 21.2357 25.2082 21.1918 25.1826 21.1333L25.1851 21.1309C25.1277 21.1101 25.0655 21.0919 25.057 21.0163L25.0594 21.0139C25.0058 20.9858 24.9728 20.9334 24.9277 20.8969C24.8216 20.9054 24.8008 20.7677 24.702 20.7652C24.6423 20.7433 24.5776 20.7287 24.5715 20.6482C24.3678 20.4861 24.1654 20.324 23.9617 20.1607C23.908 20.1326 23.8763 20.0802 23.8287 20.0437C23.7214 20.0534 23.697 19.9206 23.6006 19.912C23.5628 19.8669 23.5055 19.845 23.4701 19.7987C23.4323 19.7828 23.3945 19.767 23.3567 19.7511C23.3469 19.6427 23.2237 19.6975 23.1847 19.6317C23.1579 19.6061 23.1322 19.5805 23.1054 19.5549C23.0652 19.5123 23.02 19.4745 22.9761 19.4355C22.8432 19.4221 22.759 19.3172 22.6553 19.2539C22.5456 19.1856 22.4675 19.1795 22.3772 19.2648C22.3614 19.2721 22.348 19.2819 22.3358 19.2941C22.3321 19.2977 22.3297 19.3026 22.326 19.3063C22.3419 19.3051 22.3577 19.3026 22.3748 19.3014C22.3565 19.3623 22.3089 19.3977 22.2601 19.4318L22.2492 19.4221C22.2455 19.4196 22.2418 19.4172 22.2394 19.4148C22.2333 19.416 22.2272 19.4184 22.2211 19.4208C22.2004 19.4428 22.1796 19.4635 22.1577 19.483C22.1479 19.494 22.1382 19.5025 22.1284 19.5123C22.1162 19.5232 22.104 19.5354 22.093 19.5476C22.0894 19.5513 22.0857 19.5549 22.0821 19.5586C22.0955 19.5525 22.1113 19.5488 22.1296 19.5464H22.1308L22.1296 19.5476C22.1089 19.6073 22.0686 19.6475 22.0089 19.6707C21.9869 19.7292 21.9467 19.7694 21.8881 19.7926C21.8893 19.7743 21.893 19.7572 21.8991 19.7426C21.893 19.7487 21.8881 19.7536 21.882 19.7597C21.871 19.7719 21.8588 19.7841 21.8491 19.7975C21.8479 19.7987 21.8466 19.7999 21.8466 19.8011C21.8588 19.7962 21.8723 19.7926 21.8869 19.7914C21.8637 19.8487 21.8466 19.912 21.7674 19.9157C21.7686 19.9047 21.7698 19.8938 21.7722 19.884L21.7674 19.8889C21.7552 19.8998 21.7442 19.912 21.7344 19.9254C21.7113 19.9584 21.6808 19.9852 21.6478 20.0095C21.6356 20.0205 21.6247 20.0315 21.6137 20.0449C21.5893 20.0778 21.56 20.1058 21.5271 20.1302C21.5149 20.1412 21.5027 20.1534 21.4917 20.1668C21.4576 20.218 21.4039 20.2484 21.3612 20.2911C20.7257 20.9249 20.1146 21.5818 19.4584 22.1937C19.4157 22.2388 19.3804 22.29 19.3316 22.3278C19.3206 22.3399 19.3108 22.3546 19.3059 22.3704C19.3023 22.3924 19.3035 22.4119 19.3133 22.4301C19.2803 22.4216 19.262 22.4387 19.2511 22.4679C19.2474 22.4655 19.2437 22.4618 19.2401 22.4594C19.223 22.4533 19.2059 22.4509 19.1876 22.4521C19.0449 22.5398 18.8876 22.613 18.812 22.7751H18.8071C18.768 22.7775 18.7351 22.7946 18.7058 22.8214C18.6912 22.8384 18.6753 22.8543 18.6583 22.8689C18.679 22.8592 18.701 22.8531 18.7241 22.847C18.7107 22.9201 18.6522 22.9396 18.5912 22.9567C18.5961 22.9311 18.6058 22.9128 18.6192 22.8982C18.607 22.9067 18.5936 22.914 18.5802 22.9201C18.5643 22.9274 18.5497 22.9372 18.5351 22.9481C18.4741 23.003 18.4033 23.0396 18.3265 23.0652C18.0813 23.1736 17.8532 23.3138 17.6093 23.4247C17.5873 23.4381 17.5654 23.4503 17.5422 23.4613C17.5678 23.4576 17.5959 23.4552 17.6227 23.454C17.5495 23.5539 17.441 23.5624 17.3312 23.5673C17.3507 23.5442 17.3727 23.5259 17.3946 23.5112C17.3641 23.5161 17.3312 23.5186 17.2983 23.5161C17.1885 23.5161 17.0885 23.5588 16.9836 23.5832C16.6445 23.6624 16.3139 23.8001 15.9529 23.7587C15.6321 23.7745 15.3113 23.7928 15.0027 23.6697C14.9332 23.6429 14.86 23.6343 14.7893 23.6746C14.7844 23.6782 14.7807 23.6819 14.7783 23.6855C14.7746 23.588 14.6954 23.5576 14.6307 23.5125C14.3038 23.2833 14.0916 22.9945 14.1392 22.5703C14.1404 22.5289 14.1453 22.4886 14.1538 22.4484C14.1538 22.4472 14.1538 22.4472 14.1538 22.446C14.1611 22.4058 14.1733 22.3655 14.1892 22.3278V22.3265C14.2001 22.3009 14.2136 22.2766 14.2282 22.2534C14.2709 22.173 14.3063 22.0901 14.3502 22.0109C14.3697 21.9719 14.3929 21.9341 14.4087 21.8926C14.4099 21.8841 14.4112 21.8756 14.4124 21.867C14.6088 21.4587 14.9149 21.126 15.1857 20.7701C15.2333 20.736 15.2528 20.6762 15.3016 20.6421C15.4809 20.3788 15.6894 20.1412 15.898 19.9023C16.2444 19.5037 16.5884 19.1052 16.9336 18.7066V18.7054H16.9348C17.0263 18.6579 17.0946 18.5908 17.1324 18.4933C17.2519 18.4312 17.3251 18.3276 17.3885 18.2142C17.408 18.2069 17.4324 18.2057 17.4446 18.1935C17.8289 17.7803 18.2131 17.3647 18.5973 16.9503C18.9315 16.6212 19.2645 16.2897 19.5731 15.9362C19.5414 15.885 19.4852 15.8972 19.4377 15.8887C19.4145 15.8923 19.3913 15.8948 19.3694 15.8972C19.334 15.9728 19.2706 15.9813 19.1974 15.9716C18.951 16.0532 18.6997 16.1239 18.4741 16.2568C18.3741 16.2641 18.2777 16.2799 18.2192 16.375C18.1838 16.3786 18.1484 16.3811 18.113 16.3847C18.0325 16.4298 17.9447 16.4579 17.8642 16.5005C17.8386 16.5164 17.813 16.5322 17.7874 16.5468C17.7642 16.5602 17.7422 16.5737 17.7349 16.6017C17.7362 16.6053 17.7374 16.609 17.7386 16.6127C17.7361 16.6127 17.7337 16.6139 17.7325 16.6151C17.6935 16.5895 17.6581 16.6005 17.6203 16.6224C17.5947 16.6383 17.569 16.6529 17.5434 16.6687C17.5215 16.6834 17.491 16.6943 17.491 16.726C17.4885 16.7284 17.4849 16.7297 17.4824 16.7309C17.4812 16.7297 17.4812 16.7297 17.48 16.7284C17.4422 16.715 17.408 16.7199 17.3775 16.7492C17.3288 16.7833 17.2605 16.793 17.2422 16.8637C17.0653 16.9101 16.9067 16.9917 16.7652 17.1075C16.7201 17.1124 16.6713 17.1087 16.6469 17.1599C16.1859 17.4488 15.7419 17.7632 15.3113 18.0948C15.2967 18.1045 15.2894 18.1155 15.2881 18.1264C15.2491 18.1435 15.2076 18.1569 15.1674 18.174C14.9161 18.3617 14.6807 18.5677 14.4563 18.7858C14.4148 18.8285 14.3819 18.8797 14.3319 18.9126C14.3185 18.9236 14.3075 18.9357 14.2965 18.9492C14.2721 18.9821 14.2428 19.0101 14.2099 19.0345C14.1977 19.0454 14.1855 19.0564 14.1758 19.0698C14.1514 19.1027 14.1209 19.1308 14.0892 19.1551C14.0757 19.1661 14.0648 19.1783 14.0538 19.1905C14.0294 19.2246 14.0001 19.2526 13.9672 19.277C13.955 19.288 13.9428 19.299 13.933 19.3124C13.905 19.3526 13.8659 19.3831 13.8257 19.4099C13.7793 19.4464 13.7379 19.4891 13.7001 19.533C13.694 19.5415 13.6866 19.55 13.6805 19.5586C13.6915 19.5537 13.7049 19.5525 13.7196 19.5513C13.7147 19.6293 13.6537 19.6475 13.5964 19.6707C13.572 19.7292 13.533 19.7694 13.4732 19.7914C13.4488 19.8511 13.4098 19.895 13.3439 19.9108C13.35 19.884 13.3597 19.8608 13.3732 19.8426C13.3524 19.856 13.3293 19.8682 13.3061 19.8779C13.1865 19.9486 13.0853 20.0424 12.9841 20.1339C12.9365 20.1753 12.906 20.2314 12.8621 20.2765C12.7291 20.3959 12.5645 20.4678 12.4169 20.5653C12.3303 20.7201 12.4047 20.8908 12.3705 21.0504C12.3242 21.098 12.3169 21.1589 12.3157 21.2198C12.3071 21.5514 12.2876 21.8841 12.2998 22.2144C12.323 22.8835 12.3218 23.5527 12.3291 24.2218C12.3523 26.1915 12.334 28.1599 12.3401 30.1295C12.3681 30.2563 12.362 30.3842 12.3608 30.511C12.3596 30.7694 12.362 31.0266 12.3754 31.2825C12.3754 31.4336 12.3742 31.586 12.373 31.7371C12.3596 31.8822 12.412 31.9565 12.5718 31.9504C12.6706 31.9468 12.7694 31.9748 12.867 31.9882L12.8633 31.9748C12.928 31.9772 12.9938 31.9809 13.0585 31.9833C13.0695 31.9858 13.0804 31.9882 13.0914 31.9907C13.2463 32.026 13.4012 32.0613 13.5561 32.0967C13.5683 32.1016 13.5805 32.1064 13.5927 32.1101C13.6659 32.1491 13.7427 32.1686 13.8269 32.1576C13.822 32.1662 13.8269 32.1747 13.8403 32.1844C14.0818 32.2527 14.3246 32.321 14.5661 32.3904C14.6307 32.4319 14.699 32.4611 14.7771 32.4599C14.832 32.4757 14.8856 32.4916 14.9405 32.5074C15.0125 32.5635 15.093 32.5915 15.1845 32.5854C15.2089 32.5879 15.2345 32.5915 15.2589 32.594C15.3321 32.6951 15.4504 32.6769 15.5516 32.7061C15.5723 32.7061 15.5931 32.7061 15.6138 32.7073C15.6138 32.7085 15.6138 32.711 15.615 32.7122C15.637 32.7366 15.665 32.7488 15.6955 32.7561C15.7273 32.7597 15.7602 32.7634 15.7907 32.7683C15.7919 32.7683 15.7919 32.7695 15.7931 32.7683C15.8529 32.7975 15.9151 32.817 15.981 32.8243C15.9956 32.8329 16.0102 32.8414 16.0236 32.8511C16.0493 32.8646 16.0761 32.8731 16.1041 32.8755C16.1224 32.8743 16.142 32.8731 16.1603 32.8755C16.1615 32.8877 16.1627 32.9011 16.1627 32.9133C16.2371 32.9621 16.3213 32.9547 16.403 32.9499C16.442 32.9535 16.4798 32.956 16.5176 32.9584C16.6286 33.0425 16.7579 33.0632 16.8909 33.0742L16.8884 33.0827C16.9641 33.1303 17.0568 33.1254 17.1373 33.1559C17.258 33.1839 17.3788 33.2119 17.4995 33.24C17.5715 33.2948 17.6532 33.3228 17.7459 33.3143C18.1106 33.3996 18.4765 33.4849 18.8412 33.5703C18.8778 33.5885 18.9156 33.6032 18.9571 33.6044C19.0852 33.6129 19.2145 33.6227 19.334 33.68C19.6621 33.6836 19.9731 33.814 20.3025 33.8165C20.6696 33.8884 21.038 33.9249 21.4063 33.8177C21.4441 33.8128 21.4819 33.8092 21.521 33.8055C21.5942 33.7458 21.6954 33.747 21.7686 33.6885C22.3162 33.3375 22.6919 32.8877 22.6175 32.1844C22.6212 32.1625 22.6236 32.1406 22.6273 32.1198C22.6809 32.1064 22.731 32.1138 22.7822 32.1406C23.0603 32.2868 23.3555 32.3612 23.6714 32.3575C24.0092 32.3551 24.3361 32.3368 24.6679 32.2393C25.1924 32.0845 25.5071 31.7505 25.6754 31.2508C25.7047 31.1899 25.7169 31.1253 25.7254 31.0595C25.7352 31.0631 25.7425 31.057 25.7474 31.0424C25.7754 30.9132 25.8022 30.7852 25.7254 30.667C25.7205 30.6597 25.7156 30.6512 25.7095 30.6438C25.6717 30.6012 25.662 30.5597 25.7108 30.5195C25.7656 30.5171 25.8193 30.5159 25.8742 30.5134C25.8852 30.5171 25.8974 30.5207 25.9096 30.522C25.973 30.6036 26.0572 30.6414 26.1596 30.6341C26.2365 30.6378 26.3133 30.6426 26.3889 30.6463C26.6134 30.7389 26.839 30.7255 27.0634 30.6451C27.1269 30.6414 27.1915 30.6378 27.2549 30.6353C27.294 30.6341 27.333 30.6341 27.3733 30.6329C27.3806 30.6219 27.3891 30.6097 27.3989 30.5975C27.4123 30.5963 27.4269 30.5939 27.4403 30.5914C27.505 30.5805 27.5672 30.5585 27.6233 30.5232C28.0307 30.3196 28.2759 29.993 28.3612 29.5457C28.3893 29.4409 28.4295 29.336 28.3966 29.2239C28.504 29.2032 28.421 29.0996 28.4698 29.0508C28.471 29.0252 28.4735 28.9996 28.4759 28.974C28.5198 28.9107 28.5357 28.8388 28.5247 28.7644C28.5003 28.6047 28.5784 28.5706 28.7211 28.5767C28.8784 28.584 29.0406 28.5852 29.1736 28.4731C29.176 28.4658 29.1785 28.4585 29.1809 28.4512C29.2273 28.4475 29.2748 28.4451 29.3212 28.4426C29.326 28.4524 29.3346 28.4621 29.3456 28.4731C29.5224 28.517 29.6822 28.489 29.8213 28.3646C29.8213 28.3512 29.8213 28.339 29.8237 28.3281C29.8249 28.3293 29.8274 28.3293 29.8286 28.3305C29.8896 28.3854 29.9628 28.3805 30.0347 28.3683C30.1652 28.3463 30.2823 28.2817 30.408 28.2415C30.4445 28.2257 30.4763 28.2013 30.5116 28.183C30.5165 28.1806 30.5214 28.1782 30.5275 28.1757C30.5482 28.166 30.5702 28.1586 30.5958 28.1586C30.7263 28.1306 30.8227 28.049 30.9141 27.96C30.9544 27.9198 30.9959 27.8783 31.0361 27.8381C31.1105 27.8308 31.1495 27.7893 31.1617 27.7187C31.2325 27.7089 31.2727 27.6662 31.2813 27.5943C31.4484 27.4505 31.5472 27.2579 31.6509 27.069C31.6667 26.9764 31.6765 26.8813 31.7619 26.8192C31.7765 26.7119 31.746 26.6278 31.6435 26.5778ZM15.7114 19.6719C15.7102 19.6731 15.7102 19.6731 15.7102 19.6744C15.7102 19.6731 15.7102 19.6719 15.709 19.6719C15.7102 19.6719 15.7102 19.6719 15.7114 19.6719ZM14.3294 21.3356L14.3307 21.3368C14.3294 21.3368 14.3294 21.3381 14.3282 21.3381C14.3294 21.3368 14.3294 21.3368 14.3294 21.3356ZM13.3073 21.3161C13.3061 21.3149 13.3049 21.3137 13.3036 21.3137C13.3049 21.3137 13.3061 21.3125 13.3073 21.3125V21.3161ZM14.7771 23.7172C14.7771 23.7233 14.7759 23.7282 14.7759 23.7343C14.7734 23.7294 14.771 23.7245 14.771 23.7197C14.7673 23.7075 14.7698 23.6965 14.7783 23.6868C14.7771 23.6965 14.7771 23.7075 14.7771 23.7172ZM19.4511 29.0557C19.4523 29.0545 19.4535 29.0533 19.4548 29.0521C19.456 29.0533 19.456 29.0545 19.4572 29.0545C19.4548 29.0545 19.4535 29.0557 19.4511 29.0557ZM31.402 26.7399L31.4008 26.7387H31.402V26.7399Z" fill="url(#paint2_linear_2001_105)"/>
<path d="M42.251 2.21141C42.2034 2.10293 42.1912 1.9847 42.1376 1.87867L42.1303 1.8811C42.1388 1.81041 42.1193 1.75313 42.0534 1.71656C41.8217 1.20831 41.4545 0.845097 40.9252 0.653741C40.913 0.654959 40.8995 0.657397 40.8861 0.659835C40.8812 0.661054 40.8776 0.661054 40.8727 0.662272C40.8764 0.657397 40.8788 0.653741 40.8825 0.651303C40.8947 0.639115 40.9093 0.640333 40.9252 0.653741C40.8642 0.559891 40.7703 0.545265 40.669 0.545265C40.63 0.542827 40.591 0.540389 40.5519 0.537952C40.5153 0.524544 40.48 0.505043 40.4409 0.496511C40.1518 0.4246 39.8615 0.490417 39.5725 0.490417C28.79 0.491636 18.0088 0.491636 7.22638 0.49773C6.38355 0.498949 5.53705 0.425819 4.69544 0.544046C4.60883 0.603768 4.5137 0.628145 4.4088 0.619613C4.40026 0.6123 4.3966 0.607425 4.39538 0.601331C4.3283 0.60255 4.26731 0.630583 4.2051 0.654959C3.8648 0.735402 3.54523 0.87313 3.2342 1.03158C3.14393 1.0328 3.07685 1.07302 3.02684 1.14737C2.99391 1.15102 2.95976 1.1498 2.94268 1.18759C2.8451 1.26925 2.71337 1.29972 2.62799 1.39845C2.56578 1.41429 2.50723 1.43501 2.49626 1.51058L2.50114 1.51667C2.42673 1.52155 2.3877 1.56543 2.36819 1.63246C2.07301 1.8226 1.8437 2.07977 1.64244 2.36254C1.56682 2.37473 1.54852 2.43445 1.53023 2.49418C1.44729 2.61484 1.36434 2.7355 1.2814 2.85495C1.24969 2.89273 1.24115 2.94636 1.2009 2.97805C1.14845 3.10115 1.09478 3.22304 1.04234 3.34614C0.992326 3.39489 0.991107 3.4668 0.964273 3.52653C0.960613 3.53993 0.959394 3.55334 0.958174 3.56675C0.944757 3.57528 0.93256 3.58381 0.920362 3.59234C0.917923 3.63013 0.915483 3.66913 0.913044 3.70813L0.906945 3.70204C0.798389 3.75567 0.826443 3.86658 0.799609 3.95434C0.797169 3.99212 0.79351 4.03234 0.791071 4.07134H0.79229C0.79351 4.07256 0.79351 4.07256 0.79351 4.07256C0.79229 4.07256 0.79229 4.07378 0.791071 4.07378C0.719106 4.18591 0.692272 4.31145 0.667878 4.43943C0.603232 4.69417 0.584936 4.95621 0.554442 5.21704C0.562981 7.93748 0.576398 10.6579 0.581277 13.3783C0.584936 16.0171 0.581277 18.6547 0.582496 21.2922C0.582496 24.2515 0.582496 27.2096 0.583716 30.1677C0.583716 31.9741 0.588595 33.7816 0.553223 35.5879C0.599573 35.6549 0.581277 35.7317 0.582496 35.8048C0.584936 36.229 0.584936 36.6531 0.588595 37.0773C0.589815 37.1419 0.5642 37.2138 0.628846 37.2662C0.727644 37.3296 0.788631 37.2126 0.874012 37.215C1.02404 37.2236 1.1326 37.0968 1.27896 37.0944C1.37776 37.0895 1.47534 37.0834 1.53389 36.9859C1.57048 36.9822 1.60829 36.9774 1.64488 36.9725C1.7327 36.9432 1.84492 36.97 1.89981 36.8628C1.9364 36.8591 1.97299 36.8555 2.0108 36.8506C2.0974 36.8201 2.21084 36.8506 2.26329 36.7409C2.35477 36.7433 2.43161 36.697 2.51455 36.6702C2.83168 36.5666 3.14028 36.435 3.46716 36.3618C3.53425 36.2826 3.6489 36.3155 3.72209 36.2521C3.75868 36.2473 3.79405 36.2424 3.83064 36.2387C3.90017 36.1632 4.0136 36.1936 4.08801 36.1303C4.12338 36.1254 4.15997 36.1205 4.19534 36.1156C4.26731 36.0449 4.37343 36.0571 4.45271 36.0084C4.47832 36.0047 4.50394 36.0023 4.52955 35.9999C4.61371 35.9316 4.72715 35.9377 4.81863 35.8853C4.84302 35.8828 4.86742 35.8804 4.89303 35.8767C4.97963 35.8121 5.09185 35.8158 5.18333 35.7634C5.42727 35.6793 5.67 35.5952 5.91273 35.5111C6.00055 35.4794 6.11398 35.5087 6.16765 35.4002C6.27987 35.4026 6.37501 35.3478 6.47746 35.3149C6.7763 35.221 7.0605 35.0833 7.37031 35.0211C7.43617 34.9407 7.55205 34.976 7.62401 34.9114C7.66061 34.9066 7.6972 34.9029 7.73379 34.898C7.80331 34.8249 7.90943 34.8395 7.98993 34.7896C8.01555 34.7871 8.04116 34.7847 8.06678 34.7822C8.14972 34.7115 8.26437 34.7201 8.35463 34.6677C8.38025 34.6652 8.40586 34.6616 8.43148 34.6591C8.51564 34.5909 8.63029 34.597 8.72055 34.5458C8.96328 34.4617 9.20723 34.3776 9.44995 34.2935C9.53899 34.2642 9.64999 34.2862 9.7061 34.1814C9.74269 34.1777 9.77928 34.174 9.81587 34.1704C9.90247 34.1387 10.0159 34.1692 10.0696 34.0595C10.1598 34.0643 10.2355 34.0156 10.3184 33.99C10.516 33.9303 10.7002 33.8328 10.9075 33.8023C10.9734 33.7243 11.0893 33.7584 11.1612 33.6926C11.2674 33.6768 11.3625 33.6378 11.4467 33.5707L11.4418 33.561C11.443 33.5585 11.4442 33.5549 11.4454 33.5524C11.4454 33.5585 11.4454 33.5646 11.4467 33.5707C11.4857 33.5671 11.5259 33.5634 11.565 33.5597C11.7235 33.5268 11.604 33.394 11.6516 33.3209C11.6382 32.1922 11.6174 31.0624 11.6162 29.9337C11.6125 27.9592 11.604 25.9847 11.6308 24.0102C11.6504 22.6159 11.6406 21.2227 11.643 19.8284C11.643 19.7809 11.6504 19.7309 11.6382 19.687C11.615 19.609 11.565 19.6249 11.5162 19.6663C11.4918 19.6687 11.4674 19.6712 11.4442 19.6736C11.4296 19.6992 11.4149 19.7248 11.4003 19.7504C11.3869 19.7626 11.3735 19.7735 11.3588 19.7821V19.776C11.3601 19.7675 11.3625 19.7589 11.3674 19.7516C11.3808 19.7163 11.4101 19.6931 11.4442 19.6736C11.3174 19.6687 11.2027 19.6955 11.1112 19.7894C11.0868 19.7918 11.0624 19.7955 11.0368 19.7979C10.9771 19.7845 10.9258 19.8113 10.8746 19.8357C10.8734 19.8418 10.8734 19.8479 10.8722 19.854C10.8673 19.8552 10.8612 19.8564 10.8563 19.8564C10.7892 19.8601 10.7282 19.882 10.6697 19.9137L10.6733 19.921C10.5636 19.9271 10.4575 19.943 10.3818 20.0344C10.3574 20.038 10.3318 20.0405 10.3074 20.0429C10.2074 20.0453 10.111 20.0551 10.0525 20.1514C10.0147 20.1563 9.9781 20.1611 9.94151 20.166C9.88052 20.2574 9.78172 20.2611 9.68658 20.2745C9.51704 20.2769 9.38165 20.4012 9.21333 20.4098C9.14014 20.4756 9.03281 20.4561 8.9584 20.5183C8.92181 20.5231 8.88522 20.528 8.84741 20.5329C8.77544 20.5975 8.66688 20.578 8.5937 20.6414C8.46319 20.6584 8.34854 20.7157 8.23144 20.7706C8.19973 20.8437 8.13752 20.8559 8.06678 20.8486C8.07409 20.8364 8.08263 20.8254 8.08995 20.8132C8.07653 20.8132 8.06312 20.8156 8.0497 20.8181C7.98749 20.84 7.92285 20.8571 7.8643 20.8863L7.86674 20.8924C7.78258 21.0033 7.65451 20.9936 7.53741 21.0107C7.524 21.0094 7.5118 21.0107 7.50082 21.0155C7.46667 21.0874 7.40568 21.1009 7.33372 21.0923C7.33494 21.0862 7.33616 21.0789 7.33494 21.0728C7.33006 21.074 7.32396 21.0753 7.31908 21.0753C7.25321 21.0777 7.19223 21.1009 7.13246 21.1313L7.13612 21.1386C7.09953 21.2093 7.03976 21.2227 6.9678 21.213C6.96902 21.2069 6.97024 21.2008 6.96902 21.1947C6.96414 21.1959 6.95926 21.1971 6.95438 21.1971C6.88729 21.1996 6.82631 21.2227 6.76776 21.2544L6.7702 21.2617C6.70921 21.3519 6.61164 21.3605 6.51528 21.3714V21.3702C6.47868 21.3751 6.44209 21.38 6.4055 21.3836C6.34451 21.475 6.24572 21.4787 6.1518 21.4945C6.1152 21.4982 6.07739 21.5031 6.0408 21.5067C5.97859 21.5945 5.88224 21.6042 5.78832 21.6164C5.7505 21.6201 5.71269 21.6237 5.6761 21.6274C5.63829 21.6908 5.5151 21.6384 5.50778 21.7432C5.50656 21.7432 5.50656 21.7432 5.50534 21.7432C5.49436 21.742 5.48216 21.7444 5.47119 21.7468C5.45899 21.7322 5.44313 21.7273 5.4224 21.7371C5.33823 21.7615 5.25407 21.7846 5.17113 21.8127C4.93572 21.8882 4.93572 21.8894 4.93572 21.6518C4.9345 16.9434 4.93206 12.2339 4.93084 7.52429C4.93084 6.82103 4.93572 6.11776 4.94426 5.4145C4.9467 5.25361 4.95524 5.08541 5.13942 5.00741C5.15405 4.98059 5.16869 4.95256 5.18333 4.92574C5.29554 4.8904 5.40776 4.85505 5.51997 4.82092C5.53217 4.81605 5.54559 4.81239 5.55779 4.80874C5.60536 4.80996 5.65293 4.81239 5.69928 4.81239C15.101 4.81361 24.5027 4.81483 33.9044 4.81483C35.1168 4.81483 36.3292 4.81117 37.5416 4.80874H38.354C38.4894 4.80874 38.6235 4.80752 38.7589 4.80752C38.8272 4.80752 38.8955 4.8063 38.9638 4.8063C39.1944 4.8063 39.4237 4.80508 39.6542 4.80508C40.0372 4.79045 40.4312 4.88187 40.7959 4.68442L40.8154 4.68563L40.8337 4.68076C40.8934 4.69295 40.9422 4.66248 40.9947 4.64176C40.9996 4.64176 41.0044 4.6381 41.0093 4.63079C41.0118 4.62713 41.0118 4.62347 41.0105 4.6186C41.0605 4.60397 41.1142 4.59544 41.1581 4.56253L41.1545 4.55156C41.2167 4.53694 41.2703 4.51012 41.2935 4.44431C41.3289 4.41627 41.3655 4.38946 41.4021 4.36143C41.4423 4.34802 41.4838 4.33339 41.524 4.31999C41.5533 4.27976 41.5826 4.23954 41.6119 4.19932C41.6253 4.18713 41.6375 4.17494 41.6497 4.16276C41.6777 4.13472 41.7058 4.10669 41.7338 4.07744C41.8473 3.92996 41.9546 3.78004 42.0168 3.60209C42.0863 3.54481 42.1278 3.47412 42.1303 3.3827C42.1364 3.37052 42.1388 3.35833 42.1376 3.34492C42.2132 3.24863 42.2473 3.13894 42.2486 3.01827C42.2498 3.00365 42.2498 2.99024 42.251 2.97683C42.2815 2.72088 42.262 2.46614 42.251 2.21141ZM1.93274 7.36706C1.93274 7.36584 1.93152 7.36584 1.93152 7.36463C1.92908 7.36584 1.92786 7.36706 1.92542 7.3695H1.9242C1.92542 7.36706 1.92542 7.36463 1.92664 7.36219C1.93152 7.36219 1.93518 7.36097 1.94006 7.35975C1.93762 7.36219 1.93518 7.36463 1.93274 7.36706ZM4.83448 21.8773C4.83205 21.8736 4.82839 21.8712 4.82595 21.8675C4.81497 21.8382 4.80521 21.809 4.79911 21.7785C4.81497 21.8078 4.83448 21.837 4.85766 21.8663C4.85034 21.8712 4.8418 21.8748 4.83448 21.8773ZM11.5564 20.7779C11.5589 20.7754 11.5613 20.773 11.5638 20.7706C11.5601 20.7779 11.5564 20.7864 11.554 20.7937C11.5552 20.7888 11.5552 20.784 11.5564 20.7779ZM11.2881 20.1014C11.2857 20.1075 11.2832 20.1136 11.2808 20.1197C11.2783 20.1087 11.2771 20.099 11.2783 20.0868C11.282 20.0917 11.2857 20.0965 11.2881 20.1014ZM11.2808 32.7407V32.7529C11.2771 32.7504 11.2722 32.748 11.2686 32.7456C11.2722 32.7456 11.2759 32.7431 11.2808 32.7407ZM11.2661 23.352C11.2674 23.3557 11.2674 23.3594 11.2674 23.363C11.2674 23.363 11.2674 23.3618 11.2661 23.3606V23.352ZM11.2649 23.4837C11.2661 23.4898 11.2661 23.4946 11.2649 23.4995C11.2637 23.4995 11.2637 23.4995 11.2637 23.4995C11.2637 23.4934 11.2637 23.4885 11.2649 23.4837ZM11.2491 22.7816C11.2478 22.7926 11.2466 22.8023 11.2466 22.8133C11.2344 22.8133 11.2173 22.8097 11.199 22.7999C11.221 22.7975 11.2369 22.7914 11.2491 22.7816ZM11.1588 19.7979C11.1612 19.7955 11.1649 19.7943 11.1673 19.7931C11.1698 19.7955 11.1698 19.7979 11.171 19.8004C11.1759 19.8113 11.1783 19.8235 11.1783 19.8357V19.8394C11.1722 19.8369 11.1661 19.8357 11.1588 19.8345V19.7979ZM10.4648 20.0393C10.466 20.0393 10.466 20.0393 10.4672 20.0393C10.4806 20.038 10.4928 20.0368 10.5062 20.0368C10.5087 20.0344 10.5111 20.0319 10.5136 20.0307V20.0356C10.5111 20.0368 10.5087 20.0368 10.5062 20.0368C10.494 20.0502 10.4806 20.0514 10.4672 20.0393C10.466 20.0405 10.4648 20.0417 10.4636 20.0429C10.4636 20.0417 10.4648 20.0405 10.4648 20.0393ZM10.1062 20.1611C10.1184 20.1599 10.1281 20.1587 10.1403 20.1587C10.1415 20.1575 10.1415 20.1563 10.1428 20.1563C10.1428 20.1563 10.1428 20.1575 10.1428 20.1587C10.1415 20.1587 10.1415 20.1587 10.1403 20.1587C10.1306 20.1697 10.1196 20.1721 10.1074 20.1648C10.1062 20.1648 10.1037 20.1636 10.1013 20.1611H10.1062ZM12.7823 3.80564C12.7835 3.80442 12.7835 3.80442 12.7835 3.8032C12.7847 3.80442 12.7847 3.80442 12.7859 3.80564H12.7823ZM15.29 2.72575C15.2888 2.72453 15.2876 2.72453 15.2864 2.72332H15.2913C15.2913 2.72453 15.2913 2.72453 15.29 2.72575Z" fill="url(#paint3_linear_2001_105)"/>
</g>
<defs>
<linearGradient id="paint0_linear_2001_105" x1="23.8579" y1="10.431" x2="23.8579" y2="44.9819" gradientUnits="userSpaceOnUse">
<stop stop-color="#B0FFC1"/>
<stop offset="1" stop-color="#16AD71"/>
</linearGradient>
<linearGradient id="paint1_linear_2001_105" x1="23.8835" y1="14.1816" x2="23.8835" y2="25.6396" gradientUnits="userSpaceOnUse">
<stop stop-color="#B0FFC1"/>
<stop offset="1" stop-color="#16AD71"/>
</linearGradient>
<linearGradient id="paint2_linear_2001_105" x1="22.0303" y1="33.933" x2="22.0303" y2="13.7301" gradientUnits="userSpaceOnUse">
<stop stop-color="#C9FDFF"/>
<stop offset="0.3218" stop-color="#81FBFF"/>
<stop offset="1" stop-color="#00DBF7"/>
</linearGradient>
<linearGradient id="paint3_linear_2001_105" x1="22.2698" y1="37.3784" x2="22.2698" y2="-1.85659" gradientUnits="userSpaceOnUse">
<stop stop-color="#C9FDFF"/>
<stop offset="0.3218" stop-color="#81FBFF"/>
<stop offset="1" stop-color="#00DBF7"/>
</linearGradient>
<clipPath id="clip0_2001_105">
<rect width="44.5203" height="44.5203" fill="white" transform="translate(0.553711 0.461426)"/>
</clipPath>
</defs>
</svg>
