<svg width="148" height="50" viewBox="0 0 148 50" fill="none" xmlns="http://www.w3.org/2000/svg">
<path d="M10.0151 26.2242C8.42776 26.2242 7.03287 26.0559 5.83037 25.7192C4.65192 25.3825 3.65385 24.8894 2.83615 24.2401C2.04251 23.5667 1.45328 22.749 1.06849 21.787C0.683686 20.825 0.515337 19.7067 0.563437 18.432L3.55765 17.7827C3.46145 19.0333 3.66588 20.0795 4.17093 20.9212C4.67597 21.763 5.44557 22.4003 6.47972 22.8332C7.51387 23.242 8.72839 23.4464 10.1233 23.4464C11.4701 23.4464 12.6124 23.2781 13.5504 22.9414C14.4883 22.6047 15.1858 22.1357 15.6427 21.5345C16.1237 20.9332 16.3642 20.2478 16.3642 19.4782C16.3642 18.6124 16.0877 17.927 15.5345 17.4219C14.9814 16.9169 14.2358 16.5321 13.2979 16.2675C12.384 15.9789 11.3619 15.7144 10.2315 15.4739C9.12521 15.2334 8.01891 14.9568 6.91262 14.6442C5.80632 14.3315 4.80825 13.9347 3.9184 13.4537C3.0526 12.9487 2.34313 12.2993 1.78998 11.5057C1.26088 10.688 0.996335 9.65382 0.996335 8.40322C0.996335 6.98428 1.34506 5.75773 2.04251 4.72358C2.764 3.68944 3.7741 2.89579 5.0728 2.34264C6.37149 1.76544 7.89866 1.47684 9.65431 1.47684C11.3859 1.47684 12.9251 1.75342 14.2719 2.30657C15.6427 2.85971 16.725 3.67741 17.5186 4.75966C18.3123 5.81785 18.7332 7.12857 18.7813 8.69182L15.6788 9.44939C15.6788 8.5836 15.5225 7.82602 15.2098 7.17667C14.9212 6.50328 14.5124 5.96215 13.9833 5.55331C13.4542 5.12041 12.8169 4.79573 12.0713 4.57928C11.3258 4.33878 10.5081 4.21854 9.61823 4.21854C8.53599 4.21854 7.58602 4.38688 6.76832 4.72358C5.95062 5.06028 5.3133 5.51723 4.85635 6.09443C4.3994 6.67163 4.17093 7.35705 4.17093 8.1507C4.17093 9.08864 4.4956 9.83419 5.14495 10.3873C5.81835 10.9164 6.68414 11.3373 7.74234 11.65C8.80054 11.9626 9.93088 12.2512 11.1334 12.5158C12.1675 12.7322 13.1776 12.9968 14.1637 13.3094C15.1738 13.598 16.0877 13.9948 16.9054 14.4999C17.7231 14.9809 18.3724 15.6182 18.8534 16.4118C19.3344 17.2055 19.5749 18.2156 19.5749 19.4421C19.5749 20.813 19.2142 22.0035 18.4927 23.0136C17.7952 24.0236 16.737 24.8173 15.3181 25.3945C13.8991 25.9476 12.1315 26.2242 10.0151 26.2242Z" fill="white"/>
<path d="M31.6155 26.2242C29.8358 26.2242 28.2605 25.8394 26.8897 25.0698C25.5429 24.2762 24.4847 23.1458 23.7151 21.6788C22.9695 20.2117 22.5967 18.432 22.5967 16.3397C22.5967 14.1752 22.9936 12.3835 23.7872 10.9645C24.6049 9.52154 25.6872 8.4393 27.034 7.7178C28.3807 6.9963 29.8839 6.63555 31.5433 6.63555C33.2749 6.63555 34.8141 7.02035 36.1609 7.78995C37.5317 8.5355 38.614 9.64179 39.4076 11.1088C40.2013 12.5518 40.5981 14.3436 40.5981 16.484C40.5981 18.6244 40.2013 20.4162 39.4076 21.8592C38.638 23.3021 37.5678 24.3964 36.197 25.142C34.8502 25.8635 33.323 26.2242 31.6155 26.2242ZM31.7598 23.5186C32.9142 23.5186 33.9002 23.242 34.7179 22.6889C35.5597 22.1117 36.197 21.306 36.6299 20.2719C37.0868 19.2377 37.3153 18.0112 37.3153 16.5922C37.3153 15.1252 37.0748 13.8626 36.5938 12.8044C36.1368 11.7221 35.4755 10.8924 34.6097 10.3152C33.7439 9.71394 32.6977 9.41332 31.4712 9.41332C30.3649 9.41332 29.3908 9.67787 28.5491 10.207C27.7073 10.7361 27.058 11.5177 26.601 12.5518C26.1441 13.5619 25.9156 14.8005 25.9156 16.2675C25.9156 18.5282 26.4327 20.3079 27.4668 21.6066C28.525 22.8813 29.956 23.5186 31.7598 23.5186Z" fill="white"/>
<path d="M45.9952 25.7552V12.5879H42.6764V9.95444L47.33 10.243V9.62977C46.7288 9.38927 46.2237 9.06459 45.8149 8.65575C45.4301 8.22285 45.1295 7.72982 44.913 7.17667C44.7206 6.62353 44.6244 6.0343 44.6244 5.40901C44.6244 4.39891 44.8409 3.52109 45.2738 2.77554C45.7307 2.02999 46.368 1.44077 47.1857 1.00787C48.0275 0.57497 49.0255 0.358521 50.1799 0.358521C51.0938 0.358521 51.9115 0.490796 52.633 0.755346C53.3786 0.995845 53.9919 1.32052 54.4728 1.72937L54.076 4.79573C53.6191 4.36283 53.0659 4.02613 52.4166 3.78564C51.7672 3.52109 51.1179 3.38881 50.4685 3.38881C49.6749 3.38881 49.0255 3.64134 48.5205 4.14638C48.0154 4.65143 47.7629 5.43306 47.7629 6.49125C47.7629 7.0925 47.8471 7.60957 48.0154 8.04247C48.1838 8.47537 48.4002 8.84815 48.6648 9.16079C48.9534 9.44939 49.242 9.68989 49.5306 9.88229H54.1482L54.1121 12.5879H49.242V25.7552H45.9952Z" fill="white"/>
<path d="M63.3774 26.116C61.6458 26.116 60.3592 25.647 59.5174 24.7091C58.6757 23.7711 58.2548 22.3402 58.2548 20.4162V9.84622H55.441L55.477 7.10453H57.2447C57.8459 7.10453 58.2788 6.9963 58.5434 6.77985C58.832 6.5634 59.0003 6.20265 59.0484 5.6976L59.4092 2.88376H61.4294V7.10453H66.8045V9.88229H61.4294V20.344C61.4294 21.306 61.6458 22.0035 62.0787 22.4364C62.5357 22.8452 63.185 23.0496 64.0268 23.0496C64.4837 23.0496 64.9527 22.9895 65.4337 22.8693C65.9387 22.749 66.4318 22.5085 66.9128 22.1478V25.4306C66.2153 25.6951 65.566 25.8755 64.9647 25.9717C64.3875 26.0679 63.8584 26.116 63.3774 26.116Z" fill="white"/>
<path d="M73.5463 25.7552L68.6041 7.10453H71.9951L75.6747 22.9775H76.2519L80.1841 7.10453H84.4409L88.4092 22.9775H88.9503L92.6299 7.10453H95.9849L90.9705 25.7552H86.3529L82.4929 9.91837H82.06L78.2 25.7552H73.5463Z" fill="white"/>
<path d="M103.188 26.2242C102.178 26.2242 101.264 26.0318 100.446 25.647C99.6284 25.2382 98.979 24.6489 98.498 23.8793C98.017 23.0857 97.7765 22.0876 97.7765 20.8851C97.7765 19.9953 97.9329 19.2137 98.2455 18.5403C98.5822 17.8669 99.0872 17.2897 99.7607 16.8087C100.458 16.3277 101.348 15.9308 102.43 15.6182C103.512 15.3056 104.835 15.041 106.398 14.8246C107.288 14.7043 108.01 14.5841 108.563 14.4638C109.14 14.3436 109.561 14.1512 109.826 13.8866C110.09 13.598 110.222 13.1771 110.222 12.624C110.222 11.7101 109.91 10.9405 109.284 10.3152C108.659 9.68989 107.673 9.37724 106.326 9.37724C105.629 9.37724 104.919 9.49749 104.198 9.73799C103.476 9.97849 102.839 10.3873 102.286 10.9645C101.757 11.5177 101.42 12.2993 101.276 13.3094L98.2455 12.2993C98.4379 11.4335 98.7506 10.6519 99.1835 9.95444C99.6404 9.25699 100.218 8.66777 100.915 8.18677C101.612 7.68172 102.418 7.29692 103.332 7.03237C104.27 6.76783 105.304 6.63555 106.435 6.63555C107.998 6.63555 109.296 6.9001 110.331 7.4292C111.389 7.9583 112.17 8.776 112.675 9.88229C113.205 10.9645 113.469 12.3594 113.469 14.067V18.2156C113.469 18.9611 113.481 19.7788 113.505 20.6687C113.553 21.5345 113.613 22.4123 113.686 23.3021C113.758 24.1679 113.83 24.9856 113.902 25.7552H110.872C110.8 24.9856 110.727 24.216 110.655 23.4464C110.607 22.6769 110.571 21.9073 110.547 21.1377H110.078C109.717 22.0275 109.236 22.8572 108.635 23.6268C108.034 24.3964 107.276 25.0217 106.362 25.5027C105.473 25.9837 104.414 26.2242 103.188 26.2242ZM104.162 23.5547C104.691 23.5547 105.22 23.4705 105.749 23.3021C106.302 23.1338 106.843 22.8572 107.372 22.4724C107.926 22.0876 108.443 21.5946 108.924 20.9934C109.429 20.3921 109.874 19.6706 110.258 18.8289V15.2214L111.196 15.4017C110.812 15.7865 110.295 16.0751 109.645 16.2675C109.02 16.4599 108.322 16.6163 107.553 16.7365C106.783 16.8568 106.014 16.989 105.244 17.1333C104.474 17.2536 103.765 17.446 103.116 17.7105C102.49 17.951 101.985 18.2998 101.6 18.7567C101.216 19.2137 101.023 19.839 101.023 20.6326C101.023 21.5946 101.312 22.3281 101.889 22.8332C102.466 23.3142 103.224 23.5547 104.162 23.5547Z" fill="white"/>
<path d="M118.254 25.7552V7.10453H121.212L120.924 13.598H121.537C121.753 12.1791 122.09 10.9525 122.547 9.91837C123.004 8.88422 123.605 8.07855 124.351 7.50135C125.12 6.92415 126.07 6.63555 127.201 6.63555C127.441 6.63555 127.718 6.6596 128.03 6.7077C128.343 6.73175 128.704 6.81593 129.113 6.96023L128.932 10.3873C128.572 10.243 128.211 10.1468 127.85 10.0987C127.489 10.0266 127.141 9.99052 126.804 9.99052C125.866 9.99052 125.048 10.2911 124.351 10.8924C123.677 11.4936 123.112 12.3113 122.655 13.3455C122.198 14.3556 121.826 15.4979 121.537 16.7726V25.7552H118.254Z" fill="white"/>
<path d="M139.633 26.2242C138.166 26.2242 136.867 26.0078 135.737 25.5749C134.631 25.1179 133.693 24.4686 132.923 23.6268C132.153 22.7851 131.576 21.787 131.191 20.6326C130.807 19.4782 130.614 18.1795 130.614 16.7365C130.614 15.2695 130.807 13.9227 131.191 12.6961C131.576 11.4696 132.141 10.3994 132.887 9.48547C133.633 8.57157 134.546 7.87412 135.629 7.39313C136.711 6.88808 137.949 6.63555 139.344 6.63555C140.571 6.63555 141.689 6.83998 142.699 7.24883C143.709 7.65767 144.563 8.295 145.261 9.16079C145.982 10.0025 146.523 11.0728 146.884 12.3715C147.245 13.6461 147.389 15.1492 147.317 16.8808L132.671 16.989V14.7524L145.333 14.6442L144.214 16.1593C144.335 14.6442 144.19 13.3936 143.782 12.4075C143.373 11.4215 142.784 10.6759 142.014 10.1709C141.268 9.66584 140.379 9.41332 139.344 9.41332C138.238 9.41332 137.264 9.70192 136.422 10.2791C135.581 10.8563 134.931 11.686 134.474 12.7683C134.041 13.8505 133.825 15.1613 133.825 16.7004C133.825 18.913 134.318 20.6086 135.304 21.787C136.29 22.9414 137.757 23.5186 139.705 23.5186C140.451 23.5186 141.1 23.4344 141.653 23.2661C142.23 23.0737 142.711 22.8212 143.096 22.5085C143.505 22.1718 143.83 21.787 144.07 21.3541C144.335 20.9212 144.539 20.4522 144.683 19.9472L147.569 20.6326C147.353 21.4984 147.016 22.28 146.559 22.9775C146.126 23.6509 145.573 24.2281 144.9 24.7091C144.251 25.1901 143.493 25.5628 142.627 25.8274C141.761 26.0919 140.763 26.2242 139.633 26.2242Z" fill="white"/>
<path d="M8.42297 49.0859C7.41565 49.0859 6.51625 48.9276 5.72478 48.611C4.93331 48.2944 4.26415 47.8267 3.71732 47.2079C3.17048 46.5891 2.75316 45.8336 2.46536 44.9414C2.19194 44.0348 2.05523 43.0203 2.05523 41.8979C2.05523 40.7322 2.19913 39.6889 2.48694 38.7679C2.77475 37.8326 3.19207 37.0339 3.7389 36.3719C4.28574 35.71 4.9477 35.2063 5.72478 34.861C6.50186 34.5012 7.36528 34.3213 8.31505 34.3213C9.06335 34.3213 9.74689 34.4292 10.3657 34.6451C10.9845 34.8466 11.5241 35.1488 11.9846 35.5517C12.4451 35.9402 12.7977 36.4151 13.0423 36.9763C13.3013 37.5376 13.438 38.1636 13.4524 38.8543L11.8983 39.2212C11.927 38.4442 11.7759 37.8038 11.445 37.3001C11.114 36.7965 10.6679 36.4151 10.1066 36.1561C9.55981 35.8971 8.95542 35.7676 8.29346 35.7676C7.68906 35.7676 7.10625 35.8899 6.54503 36.1345C5.9838 36.3791 5.48734 36.7461 5.05562 37.2354C4.6383 37.7246 4.30732 38.3506 4.06269 39.1133C3.81805 39.876 3.69573 40.7898 3.69573 41.8547C3.69573 43.2074 3.89 44.3082 4.27854 45.1573C4.66708 45.9919 5.22111 46.6107 5.94063 47.0136C6.67454 47.4022 7.52358 47.5964 8.48773 47.5964C9.40872 47.5964 10.1498 47.431 10.711 47.1C11.2723 46.769 11.6896 46.3013 11.963 45.6969C12.2508 45.0925 12.4163 44.373 12.4595 43.5384L13.9273 43.819C13.9129 44.5385 13.7978 45.222 13.5819 45.8696C13.3661 46.5028 13.0351 47.064 12.589 47.5533C12.1573 48.0282 11.5961 48.4023 10.9053 48.6757C10.2146 48.9491 9.38713 49.0859 8.42297 49.0859Z" fill="white"/>
<path d="M25.9955 48.8268V33.8248H27.6576V37.2785C27.6576 37.5951 27.6504 37.9189 27.636 38.2499C27.6216 38.5809 27.5928 38.919 27.5497 39.2644C27.5209 39.5954 27.4849 39.9264 27.4417 40.2574C27.3986 40.5883 27.3482 40.9265 27.2906 41.2719H27.636C27.8518 40.4085 28.1253 39.6961 28.4562 39.1349C28.8016 38.5593 29.2261 38.1348 29.7298 37.8614C30.2335 37.5879 30.8163 37.4512 31.4782 37.4512C32.7302 37.4512 33.6584 37.8901 34.2628 38.7679C34.8815 39.6314 35.1909 40.9121 35.1909 42.6102V48.8268H33.5936V42.7181C33.5936 41.3798 33.3849 40.4156 32.9676 39.8256C32.5503 39.2212 31.9387 38.919 31.1329 38.919C30.4277 38.919 29.8305 39.1205 29.3413 39.5234C28.8664 39.9264 28.485 40.4732 28.1972 41.1639C27.9094 41.8547 27.7079 42.6462 27.5928 43.5384V48.8268H25.9955Z" fill="white"/>
<path d="M50.43 49.0859C49.8256 49.0859 49.2788 48.9779 48.7895 48.7621C48.3002 48.5318 47.9117 48.1793 47.6239 47.7044C47.3361 47.2295 47.1922 46.6395 47.1922 45.9344C47.1922 45.4307 47.2785 44.9774 47.4512 44.5745C47.6383 44.1715 47.9261 43.8262 48.3146 43.5384C48.7032 43.2362 49.2212 42.9843 49.8688 42.7829C50.5164 42.5814 51.3078 42.4231 52.2432 42.308C52.8188 42.236 53.2793 42.1641 53.6247 42.0921C53.9701 42.0058 54.2219 41.8835 54.3802 41.7252C54.5529 41.5525 54.6392 41.2935 54.6392 40.9481C54.6392 40.3581 54.4377 39.8616 54.0348 39.4587C53.6319 39.0414 52.9987 38.8327 52.1353 38.8327C51.718 38.8327 51.2791 38.9047 50.8186 39.0486C50.3581 39.1925 49.9551 39.4443 49.6098 39.8041C49.2644 40.1638 49.0485 40.6747 48.9622 41.3366L47.4728 40.797C47.5735 40.2933 47.7462 39.84 47.9909 39.4371C48.2355 39.0342 48.5593 38.6816 48.9622 38.3794C49.3651 38.0772 49.8328 37.847 50.3653 37.6887C50.9121 37.5304 51.5165 37.4512 52.1785 37.4512C53.085 37.4512 53.8333 37.6023 54.4234 37.9045C55.0277 38.2067 55.4739 38.6744 55.7617 39.3076C56.0639 39.9264 56.215 40.725 56.215 41.7036V44.3586C56.215 44.7903 56.2222 45.2724 56.2365 45.8048C56.2653 46.3229 56.3013 46.8481 56.3445 47.3806C56.3876 47.8986 56.4308 48.3807 56.474 48.8268H54.9846C54.9414 48.3376 54.9054 47.8627 54.8766 47.4022C54.8479 46.9417 54.8263 46.4812 54.8119 46.0207H54.5529C54.3514 46.5531 54.0708 47.0568 53.711 47.5317C53.3513 47.9922 52.898 48.3663 52.3511 48.6541C51.8187 48.9419 51.1783 49.0859 50.43 49.0859ZM50.7754 47.726C51.092 47.726 51.423 47.6756 51.7683 47.5749C52.1137 47.4597 52.4591 47.2871 52.8044 47.0568C53.1498 46.8122 53.4736 46.4956 53.7758 46.107C54.0924 45.7041 54.3874 45.222 54.6608 44.6608V42.3943L55.2652 42.5023C55.0349 42.7469 54.7184 42.934 54.3154 43.0635C53.9269 43.1786 53.488 43.2721 52.9987 43.3441C52.5094 43.416 52.013 43.4952 51.5093 43.5815C51.02 43.6679 50.5667 43.7974 50.1494 43.9701C49.7465 44.1284 49.4155 44.3586 49.1565 44.6608C48.9118 44.9486 48.7895 45.3515 48.7895 45.8696C48.7895 46.4884 48.9694 46.9561 49.3292 47.2727C49.7033 47.5749 50.1854 47.726 50.7754 47.726Z" fill="white"/>
<path d="M68.9904 48.8268V37.7103H70.4798L70.264 41.2935H70.5877C70.7748 40.4444 71.0266 39.7393 71.3432 39.1781C71.6598 38.6025 72.0484 38.1707 72.5089 37.8829C72.9837 37.5951 73.5162 37.4512 74.1062 37.4512C74.8401 37.4512 75.4373 37.6383 75.8978 38.0125C76.3583 38.3722 76.6965 38.8399 76.9123 39.4155C77.1282 39.9911 77.2289 40.5955 77.2145 41.2287H77.5383C77.6822 40.4372 77.9125 39.7609 78.229 39.1997C78.5456 38.624 78.9486 38.1923 79.4378 37.9045C79.9271 37.6023 80.4883 37.4512 81.1215 37.4512C81.6683 37.4512 82.1504 37.5663 82.5677 37.7966C82.9995 38.0268 83.3592 38.3578 83.647 38.7895C83.9492 39.2212 84.1723 39.7609 84.3162 40.4084C84.4601 41.056 84.532 41.7971 84.532 42.6318V48.8268H82.9563V42.8476C82.9563 41.9698 82.8699 41.2431 82.6973 40.6675C82.539 40.0919 82.2943 39.6601 81.9633 39.3723C81.6468 39.0845 81.2438 38.9406 80.7545 38.9406C80.1933 38.9406 79.6897 39.1349 79.2436 39.5234C78.7975 39.8976 78.4233 40.4228 78.1211 41.0992C77.8333 41.7755 77.639 42.5526 77.5383 43.4304V48.8268H75.9841V43.0635C75.9841 42.1425 75.905 41.3798 75.7467 40.7754C75.5884 40.1566 75.3438 39.6961 75.0128 39.3939C74.6818 39.0917 74.2717 38.9406 73.7824 38.9406C73.178 38.9406 72.6528 39.1493 72.2067 39.5666C71.7606 39.9695 71.4008 40.5236 71.1274 41.2287C70.854 41.9194 70.6741 42.6893 70.5877 43.5384V48.8268H68.9904Z" fill="white"/>
<path d="M102.641 49.0859C101.921 49.0859 101.31 48.9419 100.806 48.6541C100.317 48.3663 99.921 47.9778 99.6188 47.4885C99.3166 46.9992 99.0792 46.474 98.9065 45.9128H98.5827L98.7122 48.8268H97.2228V33.8248H98.8202V37.257C98.8202 37.6311 98.8058 38.034 98.777 38.4657C98.7482 38.8831 98.705 39.3076 98.6475 39.7393C98.5899 40.1566 98.5323 40.5667 98.4748 40.9697H98.8202C98.9784 40.3941 99.2015 39.84 99.4893 39.3076C99.7771 38.7751 100.18 38.3362 100.698 37.9909C101.216 37.6311 101.871 37.4512 102.662 37.4512C103.598 37.4512 104.396 37.7031 105.058 38.2067C105.72 38.7104 106.224 39.4011 106.569 40.2789C106.929 41.1424 107.109 42.1425 107.109 43.2793C107.109 44.3874 106.936 45.3803 106.591 46.2581C106.246 47.136 105.742 47.8267 105.08 48.3304C104.432 48.834 103.619 49.0859 102.641 49.0859ZM102.403 47.6612C103.037 47.6612 103.583 47.4885 104.044 47.1431C104.504 46.7834 104.85 46.2797 105.08 45.6322C105.325 44.9846 105.447 44.2219 105.447 43.3441C105.447 42.5094 105.332 41.7611 105.102 41.0992C104.871 40.4228 104.526 39.8904 104.065 39.5019C103.605 39.1133 103.037 38.919 102.36 38.919C101.871 38.919 101.432 39.0198 101.043 39.2212C100.655 39.4083 100.324 39.6673 100.051 39.9983C99.7771 40.3293 99.5469 40.6891 99.3598 41.0776C99.1727 41.4518 99.036 41.8331 98.9497 42.2216C98.8633 42.5958 98.8202 42.934 98.8202 43.2362V43.452C98.8202 43.9125 98.8993 44.3874 99.0576 44.8767C99.2303 45.3659 99.4749 45.8192 99.7915 46.2366C100.108 46.6539 100.482 46.9992 100.914 47.2727C101.36 47.5317 101.857 47.6612 102.403 47.6612Z" fill="white"/>
<path d="M124.046 49.0859C123.183 49.0859 122.427 48.9563 121.78 48.6973C121.132 48.4239 120.585 48.0354 120.139 47.5317C119.693 47.028 119.362 46.4308 119.146 45.7401C118.931 45.0494 118.823 44.2867 118.823 43.452C118.823 42.5886 118.931 41.7971 119.146 41.0776C119.377 40.3437 119.708 39.7033 120.139 39.1565C120.571 38.6097 121.096 38.1923 121.715 37.9045C122.348 37.6023 123.075 37.4512 123.895 37.4512C124.586 37.4512 125.219 37.5735 125.795 37.8182C126.37 38.0484 126.867 38.4082 127.284 38.8975C127.701 39.3867 128.018 40.0127 128.234 40.7754C128.45 41.5237 128.543 42.4159 128.514 43.452L119.794 43.5168V42.2864L127.522 42.2216L126.982 43.1498C127.039 42.2001 126.939 41.4086 126.68 40.7754C126.435 40.1422 126.068 39.6673 125.579 39.3508C125.104 39.0342 124.536 38.8759 123.874 38.8759C123.168 38.8759 122.55 39.0558 122.017 39.4155C121.499 39.7753 121.096 40.3005 120.808 40.9913C120.521 41.6676 120.377 42.4807 120.377 43.4304C120.377 44.7975 120.679 45.8552 121.283 46.6035C121.902 47.3374 122.837 47.7044 124.089 47.7044C124.564 47.7044 124.982 47.654 125.341 47.5533C125.701 47.4382 126.003 47.2799 126.248 47.0784C126.507 46.8769 126.723 46.6395 126.896 46.3661C127.068 46.0927 127.198 45.7905 127.284 45.4595L128.687 45.8048C128.543 46.3229 128.335 46.7906 128.061 47.2079C127.802 47.6108 127.478 47.9562 127.09 48.244C126.701 48.5174 126.255 48.7261 125.752 48.87C125.248 49.0139 124.679 49.0859 124.046 49.0859Z" fill="white"/>
<path d="M140.745 48.8268V37.7103H142.256L142.018 41.6172H142.364C142.508 40.8114 142.709 40.0991 142.968 39.4803C143.241 38.8471 143.601 38.3506 144.047 37.9909C144.493 37.6311 145.033 37.4512 145.666 37.4512C145.825 37.4512 146.004 37.4656 146.206 37.4944C146.407 37.5088 146.63 37.5592 146.875 37.6455L146.767 39.3076C146.566 39.2356 146.357 39.1781 146.141 39.1349C145.94 39.0917 145.745 39.0701 145.558 39.0701C144.983 39.0701 144.493 39.2716 144.09 39.6745C143.688 40.0631 143.342 40.5883 143.054 41.2503C142.781 41.8979 142.544 42.6174 142.342 43.4088V48.8268H140.745Z" fill="white"/>
</svg>
